<svg preserveAspectRatio="none" overflow="visible" style="display: block;" width="75" height="75" viewBox="0 0 75 75" fill="none" xmlns="http://www.w3.org/2000/svg">
<g id="Icon">
<circle id="Ellipse 6" cx="37.5" cy="37.5" r="37.5" fill="#F688B7"/>
<path id="Vector" d="M48.787 46.3122C48.787 46.5396 48.6964 46.7578 48.535 46.9186C48.3737 47.0794 48.1548 47.1698 47.9266 47.1698H27.2755C27.0473 47.1698 26.8285 47.0794 26.6671 46.9186C26.5057 46.7578 26.4151 46.5396 26.4151 46.3122C26.4151 46.0847 26.5057 45.8666 26.6671 45.7057C26.8285 45.5449 27.0473 45.4545 27.2755 45.4545H47.9266C48.1548 45.4545 48.3737 45.5449 48.535 45.7057C48.6964 45.8666 48.787 46.0847 48.787 46.3122ZM48.787 30.0171V42.024C48.787 42.4789 48.6057 42.9152 48.283 43.2369C47.9603 43.5586 47.5225 43.7393 47.0661 43.7393H28.136C27.6796 43.7393 27.2419 43.5586 26.9191 43.2369C26.5964 42.9152 26.4151 42.4789 26.4151 42.024V30.0171C26.4151 29.5622 26.5964 29.1259 26.9191 28.8043C27.2419 28.4826 27.6796 28.3019 28.136 28.3019H47.0661C47.5225 28.3019 47.9603 28.4826 48.283 28.8043C48.6057 29.1259 48.787 29.5622 48.787 30.0171ZM41.4731 36.0206C41.4731 35.8762 41.4365 35.7342 41.3667 35.6077C41.297 35.4812 41.1963 35.3743 41.0741 35.2969L36.3416 32.2952C36.2115 32.2129 36.0616 32.1668 35.9076 32.1619C35.7535 32.157 35.601 32.1935 35.4659 32.2674C35.3308 32.3413 35.2182 32.4501 35.1397 32.5823C35.0612 32.7145 35.0197 32.8652 35.0197 33.0189V39.0223C35.0197 39.1759 35.0612 39.3267 35.1397 39.4589C35.2182 39.591 35.3308 39.6998 35.4659 39.7737C35.601 39.8477 35.7535 39.8841 35.9076 39.8792C36.0616 39.8743 36.2115 39.8283 36.3416 39.7459L41.0741 36.7442C41.1963 36.6668 41.297 36.5599 41.3667 36.4334C41.4365 36.3069 41.4731 36.1649 41.4731 36.0206Z" fill="white"/>
</g>
</svg>
